<?xml version="1.0" encoding="UTF-8"?>
<!DOCTYPE svg PUBLIC "-//W3C//DTD SVG 1.1//EN" "http://www.w3.org/Graphics/SVG/1.1/DTD/svg11.dtd">
<svg xmlns="http://www.w3.org/2000/svg" version="1.1" width="512px" height="512px" style="shape-rendering:geometricPrecision; text-rendering:geometricPrecision; image-rendering:optimizeQuality; fill-rule:evenodd; clip-rule:evenodd" xmlns:xlink="http://www.w3.org/1999/xlink">
<g><path style="opacity:0.951" fill="#000000" d="M 199.5,-0.5 C 236.833,-0.5 274.167,-0.5 311.5,-0.5C 319.148,2.31649 324.315,7.64982 327,15.5C 330.186,35.8036 333.186,56.137 336,76.5C 341.725,80.6173 347.892,84.1173 354.5,87C 359.094,90.5458 363.927,93.7125 369,96.5C 388.167,89 407.333,81.5 426.5,74C 436.788,71.6517 445.288,74.485 452,82.5C 469.586,112.671 486.92,143.004 504,173.5C 506.25,181.254 505.25,188.587 501,195.5C 485.289,208.935 469.122,221.768 452.5,234C 450.876,235.117 449.876,236.617 449.5,238.5C 450.621,250.514 450.787,262.514 450,274.5C 465.167,286.333 480.333,298.167 495.5,310C 507.27,321.412 508.436,333.912 499,347.5C 483.081,374.336 467.414,401.336 452,428.5C 445.288,436.515 436.788,439.348 426.5,437C 407.333,429.5 388.167,422 369,414.5C 359.249,421.631 348.749,427.631 337.5,432.5C 336.808,433.025 336.308,433.692 336,434.5C 333.186,454.863 330.186,475.196 327,495.5C 324.315,503.35 319.148,508.684 311.5,511.5C 274.167,511.5 236.833,511.5 199.5,511.5C 191.852,508.684 186.685,503.35 184,495.5C 181.014,474.593 177.847,453.76 174.5,433C 162.919,427.965 152.085,421.798 142,414.5C 122.833,422 103.667,429.5 84.5,437C 74.2115,439.348 65.7115,436.515 59,428.5C 41.4138,398.329 24.0804,367.996 7,337.5C 3.93168,326.508 6.76502,317.341 15.5,310C 30.6667,298.167 45.8333,286.333 61,274.5C 60.3839,261.824 60.3839,249.157 61,236.5C 44,222.833 27,209.167 10,195.5C 3.78627,185.311 4.1196,175.311 11,165.5C 27.2526,137.997 43.2526,110.33 59,82.5C 65.7115,74.485 74.2115,71.6517 84.5,74C 103.667,81.5 122.833,89 142,96.5C 152.309,89.5496 163.142,83.3829 174.5,78C 177.847,57.2404 181.014,36.407 184,15.5C 186.685,7.64982 191.852,2.31649 199.5,-0.5 Z M 206.5,21.5 C 239.502,21.6579 272.502,21.9913 305.5,22.5C 308.618,44.1606 311.785,65.8272 315,87.5C 315.606,90.5478 317.106,93.0478 319.5,95C 334.104,100.636 347.437,108.303 359.5,118C 361.9,119.701 364.567,120.534 367.5,120.5C 389.687,113.104 411.687,105.104 433.5,96.5C 450.049,124.547 466.382,152.714 482.5,181C 482.241,182.261 481.574,183.261 480.5,184C 463.046,197.119 445.88,210.619 429,224.5C 427.448,226.768 426.615,229.268 426.5,232C 429.167,247.667 429.167,263.333 426.5,279C 426.925,283.516 428.925,287.183 432.5,290C 449.804,302.648 466.47,315.981 482.5,330C 465.799,358.566 448.966,387.066 432,415.5C 410.749,406.473 389.249,398.139 367.5,390.5C 364.567,390.466 361.9,391.299 359.5,393C 346.951,402.779 333.284,410.779 318.5,417C 315.831,420.336 314.331,424.169 314,428.5C 310.615,448.81 307.448,469.143 304.5,489.5C 271.498,489.362 238.498,489.029 205.5,488.5C 202.382,466.839 199.215,445.173 196,423.5C 195.394,420.452 193.894,417.952 191.5,416C 176.896,410.364 163.563,402.697 151.5,393C 149.1,391.299 146.433,390.466 143.5,390.5C 121.313,397.896 99.3134,405.896 77.5,414.5C 61.3333,386.833 45.1667,359.167 29,331.5C 28.3333,330.5 28.3333,329.5 29,328.5C 47.2882,314.547 65.2882,300.214 83,285.5C 83.9057,283.256 84.4057,280.923 84.5,278.5C 81.8333,263.167 81.8333,247.833 84.5,232.5C 84.5452,227.035 82.2119,222.869 77.5,220C 60.8763,207.045 44.543,193.712 28.5,180C 45.4592,151.916 62.2925,123.749 79,95.5C 100.251,104.527 121.751,112.861 143.5,120.5C 146.433,120.534 149.1,119.701 151.5,118C 163.563,108.303 176.896,100.636 191.5,95C 193.617,93.2691 195.117,91.1024 196,88.5C 199.719,66.1889 203.219,43.8555 206.5,21.5 Z M 248.5,170.5 C 294.684,170.538 324.517,192.538 338,236.5C 344.548,272.195 333.715,301.362 305.5,324C 270.139,346.76 235.473,345.76 201.5,321C 172.253,293.844 164.086,261.344 177,223.5C 191.076,192.581 214.91,174.914 248.5,170.5 Z"/></g>
<g><path style="opacity:0.947" fill="#000000" d="M 243.5,148.5 C 290.518,145.754 326.018,164.421 350,204.5C 370.067,247.006 366.067,287.006 338,324.5C 301.202,363.061 258.035,372.228 208.5,352C 166.015,328.456 146.181,292.29 149,243.5C 156.157,196.685 182.323,166.185 227.5,152C 232.989,150.925 238.322,149.759 243.5,148.5 Z M 248.5,170.5 C 214.91,174.914 191.076,192.581 177,223.5C 164.086,261.344 172.253,293.844 201.5,321C 235.473,345.76 270.139,346.76 305.5,324C 333.715,301.362 344.548,272.195 338,236.5C 324.517,192.538 294.684,170.538 248.5,170.5 Z"/></g>
</svg>
