<?xml version="1.0" standalone="no"?>
<!DOCTYPE svg PUBLIC "-//W3C//DTD SVG 20010904//EN"
 "http://www.w3.org/TR/2001/REC-SVG-20010904/DTD/svg10.dtd">
<svg version="1.0" xmlns="http://www.w3.org/2000/svg"
 width="313.000000pt" height="125.000000pt" viewBox="0 0 313.000000 125.000000"
 preserveAspectRatio="xMidYMid meet">

<g transform="translate(0.000000,125.000000) scale(0.100000,-0.100000)"
fill="#000000" stroke="none">
<path d="M0 625 l0 -625 1565 0 1565 0 0 625 0 625 -1565 0 -1565 0 0 -625z
m557 249 c57 -43 68 -76 68 -214 0 -108 -3 -130 -20 -160 -40 -67 -115 -89
-259 -75 l-76 7 0 228 0 229 23 4 c12 3 70 4 129 4 91 -2 111 -5 135 -23z
m369 -119 c63 -26 82 -127 33 -176 -16 -16 -33 -19 -104 -19 -47 0 -85 -3 -85
-8 0 -4 7 -18 16 -30 14 -20 24 -22 99 -22 82 0 85 -1 91 -25 8 -32 5 -35 -43
-46 -61 -14 -135 -10 -179 10 -54 24 -74 68 -74 158 0 84 21 131 70 155 43 22
128 23 176 3z m182 -47 c11 -29 29 -84 42 -121 12 -38 24 -66 26 -64 3 2 22
55 43 118 l38 114 48 3 c36 2 46 0 43 -10 -72 -191 -113 -296 -121 -305 -13
-17 -92 -17 -106 0 -9 12 -121 299 -121 312 0 3 20 5 44 5 l45 0 19 -52z"/>
<path d="M360 660 l0 -160 60 0 c76 0 105 24 115 95 11 70 0 164 -23 194 -17
23 -27 26 -86 29 l-66 3 0 -161z"/>
<path d="M789 679 c-31 -31 -21 -53 25 -57 61 -5 86 4 86 33 0 45 -74 61 -111
24z"/>
</g>
</svg>
