<?xml version="1.0" standalone="no"?>

<!DOCTYPE svg PUBLIC "-//W3C//DTD SVG 20010904//EN"
 "http://www.w3.org/TR/2001/REC-SVG-20010904/DTD/svg10.dtd">
<svg version="1.0" xmlns="http://www.w3.org/2000/svg"
 width="292.000000pt" height="93.000000pt" viewBox="0 0 292.000000 93.000000"
 preserveAspectRatio="xMidYMid meet">

<g transform="translate(0.000000,93.000000) scale(0.100000,-0.100000)"
fill="#000000" stroke="none">
<path d="M193 743 l-53 -4 0 -230 0 -229 121 0 c145 0 179 12 212 74 18 35 21
58 22 156 0 131 -17 180 -73 213 -33 20 -132 28 -229 20z m150 -74 c51 -14 67
-52 67 -157 0 -88 -13 -138 -40 -152 -10 -6 -46 -10 -79 -10 l-61 0 0 159 c0
144 2 160 18 164 30 8 56 7 95 -4z"/>
<path d="M1314 740 c-59 -18 -84 -76 -70 -156 10 -52 43 -79 127 -104 90 -27
99 -34 99 -74 0 -50 -13 -56 -123 -56 l-98 0 3 -32 c3 -32 4 -33 63 -40 99
-12 174 0 207 32 25 25 28 36 28 92 0 93 -25 121 -135 147 -69 17 -95 36 -95
69 0 45 16 52 117 52 91 0 93 0 99 26 4 14 2 30 -3 35 -13 13 -183 20 -219 9z"/>
<path d="M1640 655 c0 -43 -1 -45 -30 -45 -27 0 -30 -3 -30 -29 0 -25 4 -30
28 -33 l27 -3 5 -112 c6 -141 14 -153 107 -153 l64 0 -3 33 c-3 29 -6 32 -43
37 l-40 5 -3 98 -3 97 51 0 c49 0 50 1 50 30 0 29 -1 30 -50 30 l-50 0 0 45 0
45 -40 0 -40 0 0 -45z"/>
<path d="M630 608 c-55 -20 -83 -83 -77 -175 7 -123 46 -159 172 -157 96 1
124 13 118 48 -5 24 -7 24 -90 23 -73 -2 -86 1 -99 17 -28 39 -19 46 66 46 73
0 83 3 105 25 20 19 25 34 25 73 0 40 -5 53 -29 76 -24 23 -40 29 -93 32 -36
2 -78 -1 -98 -8z m128 -67 c8 -5 12 -21 10 -37 -3 -28 -5 -29 -65 -32 -61 -3
-63 -2 -63 22 0 13 7 32 16 40 16 17 80 21 102 7z"/>
<path d="M1931 608 c-55 -21 -75 -57 -79 -147 -7 -139 34 -186 159 -185 111 0
149 44 149 169 0 76 -18 127 -54 150 -33 22 -131 29 -175 13z m129 -78 c16
-16 20 -33 20 -85 0 -77 -20 -105 -73 -105 -56 0 -71 19 -75 98 -4 61 -1 73
17 91 28 28 84 28 111 1z"/>
<path d="M2351 600 c-52 -24 -61 -25 -61 -5 0 10 -10 15 -30 15 l-30 0 0 -165
0 -165 40 0 40 0 0 115 c0 129 2 133 85 144 37 6 40 9 46 44 5 35 4 37 -20 37
-14 0 -46 -9 -70 -20z"/>
<path d="M2545 607 c-45 -21 -64 -48 -75 -106 -11 -59 -5 -121 17 -163 26 -52
108 -75 207 -58 32 5 61 11 63 14 2 2 1 16 -3 30 -6 27 -7 27 -74 20 -66 -6
-104 3 -122 30 -20 30 -8 36 71 36 68 0 84 3 106 23 20 17 26 32 27 63 1 56
-8 79 -39 99 -35 23 -139 30 -178 12z m137 -82 c18 -39 -3 -55 -73 -55 -56 0
-59 1 -59 24 0 37 25 56 76 56 38 0 46 -4 56 -25z"/>
<path d="M872 602 c2 -5 27 -73 57 -153 30 -79 59 -150 64 -157 7 -8 27 -12
56 -10 l45 3 41 105 c23 58 51 131 63 163 l21 57 -44 0 -43 0 -42 -125 c-23
-69 -43 -125 -45 -125 -1 0 -22 56 -45 125 l-43 125 -44 0 c-25 0 -43 -4 -41
-8z"/>
</g>
</svg>
